<svg width="13" height="13" viewBox="0 0 13 13" fill="none" xmlns="http://www.w3.org/2000/svg">
<g id="vuesax/bold/tick-square">
<g id="tick-square">
<path id="Vector" d="M8.99202 1.37347H4.82726C3.01822 1.37347 1.93976 2.45194 1.93976 4.26097V8.42076C1.93976 10.2348 3.01822 11.3132 4.82726 11.3132H8.98705C10.7961 11.3132 11.8745 10.2348 11.8745 8.42573V4.26097C11.8795 2.45194 10.8011 1.37347 8.99202 1.37347ZM9.28524 5.20028L6.46732 8.0182C6.39774 8.08778 6.30331 8.12754 6.20391 8.12754C6.10452 8.12754 6.01009 8.08778 5.94051 8.0182L4.53403 6.61173C4.38991 6.4676 4.38991 6.22905 4.53403 6.08492C4.67816 5.94079 4.91672 5.94079 5.06084 6.08492L6.20391 7.22799L8.75843 4.67347C8.90256 4.52935 9.14111 4.52935 9.28524 4.67347C9.42937 4.8176 9.42937 5.05118 9.28524 5.20028Z" fill="#0771DE"/>
</g>
</g>
</svg>
